<?xml version="1.0" standalone="no"?>
<!DOCTYPE svg PUBLIC "-//W3C//DTD SVG 20010904//EN"
 "http://www.w3.org/TR/2001/REC-SVG-20010904/DTD/svg10.dtd">
<svg version="1.0" xmlns="http://www.w3.org/2000/svg"
 width="512.000000pt" height="512.000000pt" viewBox="0 0 512.000000 512.000000"
 preserveAspectRatio="xMidYMid meet">

<g transform="translate(0.000000,512.000000) scale(0.100000,-0.100000)"
fill="#000000" stroke="none">
<path d="M2512 5100 c-31 -29 -34 -61 -30 -304 l3 -218 28 -24 c34 -29 56 -30
91 -3 l26 20 0 254 c0 249 0 255 -22 275 -28 26 -68 26 -96 0z"/>
<path d="M1790 4690 c-11 -11 -20 -33 -20 -50 0 -42 68 -208 90 -220 52 -28
114 4 113 58 0 37 -61 190 -84 213 -25 25 -74 24 -99 -1z"/>
<path d="M3232 4693 c-28 -25 -94 -199 -86 -226 15 -51 66 -72 114 -47 22 12
90 178 90 220 0 60 -73 92 -118 53z"/>
<path d="M920 4440 c-12 -12 -20 -33 -20 -52 0 -28 21 -53 168 -201 92 -93
178 -173 191 -178 47 -18 101 24 101 78 0 9 -80 97 -177 195 -158 159 -181
178 -210 178 -20 0 -41 -8 -53 -20z"/>
<path d="M3937 4282 c-97 -98 -177 -186 -177 -194 0 -57 53 -98 101 -79 13 5
99 85 192 178 146 148 167 173 167 201 0 42 -31 72 -73 72 -29 0 -52 -19 -210
-178z"/>
<path d="M2415 4343 c-81 -7 -258 -45 -348 -73 -107 -35 -342 -148 -380 -184
-46 -42 -29 -116 29 -130 21 -6 45 4 113 43 150 86 302 143 476 177 123 24
385 25 510 1 545 -106 976 -486 1134 -1002 83 -270 85 -567 6 -837 -85 -295
-272 -565 -522 -756 -147 -111 -224 -217 -255 -350 l-13 -52 -138 0 -139 0
-30 -30 c-24 -25 -29 -36 -24 -58 13 -55 34 -62 188 -62 l139 0 -3 -223 -3
-224 -29 -37 c-58 -76 -54 -76 -566 -76 -421 0 -458 2 -495 19 -46 21 -79 54
-94 94 -7 17 -11 114 -11 238 l0 209 340 0 c327 0 341 1 360 20 30 30 27 83
-6 109 -26 20 -38 21 -363 21 l-336 0 -13 53 c-31 135 -110 241 -267 359 -318
239 -534 637 -564 1039 -30 410 105 798 381 1094 60 65 78 92 78 114 0 42 -30
74 -70 74 -29 0 -45 -11 -119 -89 -177 -185 -312 -432 -375 -684 -32 -128 -37
-157 -46 -285 -36 -542 206 -1070 640 -1395 103 -77 147 -129 185 -220 17 -40
20 -81 25 -360 5 -304 6 -317 29 -368 30 -66 115 -145 181 -169 35 -12 52 -25
63 -48 53 -110 169 -213 294 -262 60 -24 82 -27 183 -26 93 0 127 4 175 22
118 43 222 130 286 240 29 50 41 61 81 75 64 23 150 103 179 168 23 51 24 64
29 368 5 278 8 320 25 360 38 92 85 146 205 235 96 72 245 228 322 336 219
308 321 666 297 1045 -14 225 -67 414 -175 624 -249 483 -718 802 -1266 860
-89 9 -218 11 -303 3z m455 -4032 c0 -19 -104 -104 -158 -129 -49 -23 -70 -27
-152 -27 -82 0 -103 4 -152 27 -54 25 -158 110 -158 129 0 5 140 9 310 9 171
0 310 -4 310 -9z"/>
<path d="M2356 3707 c-18 -18 -25 -42 -35 -117 -17 -127 -17 -127 -59 -141
-20 -6 -53 -20 -72 -29 l-35 -18 -94 69 c-58 43 -103 69 -119 69 -19 0 -56
-30 -153 -126 -70 -70 -130 -137 -133 -150 -8 -30 2 -49 75 -145 l58 -77 -31
-73 c-17 -41 -31 -75 -32 -76 -1 -2 -51 -10 -112 -18 -157 -23 -154 -18 -154
-240 0 -223 -3 -218 155 -241 61 -9 111 -17 111 -17 1 -1 15 -35 32 -76 l31
-74 -70 -95 c-57 -78 -69 -100 -64 -121 7 -28 239 -268 268 -277 32 -10 62 4
147 69 l83 64 71 -31 c39 -17 74 -35 77 -39 3 -5 12 -54 19 -109 19 -151 14
-148 240 -148 226 0 221 -3 240 148 7 55 16 104 19 109 3 4 38 22 76 39 l71
30 84 -63 c86 -65 115 -79 147 -69 10 3 74 62 142 130 152 153 151 148 58 273
l-66 90 30 74 c17 41 32 75 33 76 0 0 51 8 111 17 158 23 155 18 155 240 0
224 4 217 -153 241 l-114 17 -32 76 -31 75 58 76 c74 95 84 115 76 145 -3 13
-63 80 -133 150 -97 96 -134 126 -153 126 -16 0 -61 -26 -119 -69 l-93 -68
-50 22 c-28 12 -62 27 -76 32 -24 10 -27 18 -39 118 -20 159 -13 155 -241 155
-175 0 -182 -1 -204 -23z m303 -214 c17 -130 28 -148 98 -168 32 -9 89 -32
126 -51 37 -19 79 -34 92 -34 13 0 59 27 104 60 45 33 85 60 89 60 4 0 34 -27
67 -60 l58 -59 -55 -73 c-87 -115 -85 -105 -40 -206 22 -48 47 -111 57 -140 9
-29 24 -56 34 -61 9 -5 55 -15 101 -21 131 -17 121 -8 118 -108 l-3 -87 -102
-15 c-115 -17 -134 -29 -152 -93 -7 -23 -30 -81 -52 -129 -46 -100 -48 -91 38
-207 l55 -73 -58 -59 c-32 -33 -63 -59 -69 -59 -5 0 -46 27 -89 60 -89 67
-109 71 -170 36 -23 -13 -70 -34 -106 -46 -97 -33 -109 -40 -119 -74 -8 -24
-31 -169 -31 -192 0 -7 -180 -4 -180 4 -1 22 -29 190 -35 204 -4 9 -28 25 -53
34 -87 32 -167 66 -187 80 -37 26 -69 16 -151 -46 -43 -33 -84 -60 -89 -60 -6
0 -37 26 -69 59 l-58 59 55 73 c81 108 82 114 42 197 -18 39 -41 96 -51 126
-26 82 -42 92 -159 108 l-100 13 -3 87 c-3 100 -16 89 122 109 44 6 88 16 98
22 10 7 28 41 40 77 12 36 36 96 54 133 39 82 38 85 -42 193 l-57 75 59 60
c32 32 62 59 66 59 4 0 44 -27 89 -60 45 -33 91 -60 104 -60 13 0 55 15 92 34
37 18 86 39 108 45 58 18 83 32 90 50 6 14 34 182 35 204 0 4 40 7 89 7 l89 0
11 -87z"/>
<path d="M2441 3104 c-364 -98 -487 -546 -223 -811 190 -190 494 -190 684 0
145 146 183 366 93 552 -98 204 -339 317 -554 259z m251 -162 c118 -52 200
-175 200 -301 1 -97 -23 -160 -88 -230 -74 -80 -132 -106 -244 -106 -112 0
-170 26 -244 106 -63 68 -90 134 -90 224 0 145 96 275 237 321 58 19 170 12
229 -14z"/>
<path d="M671 3564 c-44 -56 -13 -99 104 -143 94 -36 128 -38 155 -11 25 25
27 81 3 102 -28 23 -175 78 -210 78 -22 0 -38 -8 -52 -26z"/>
<path d="M4279 3557 c-98 -41 -109 -51 -109 -98 0 -43 26 -69 70 -69 42 0 183
59 208 86 27 31 28 54 1 88 -28 35 -72 33 -170 -7z"/>
<path d="M283 2870 c-45 -18 -55 -72 -22 -114 l20 -26 254 0 254 0 20 26 c26
33 27 65 2 95 -19 24 -20 24 -263 26 -133 1 -253 -2 -265 -7z"/>
<path d="M4333 2870 c-45 -18 -55 -72 -22 -114 l20 -26 254 0 254 0 20 26 c26
33 27 65 2 95 -19 24 -20 24 -263 26 -133 1 -253 -2 -265 -7z"/>
</g>
</svg>
